<?xml version="1.0" encoding="UTF-8" standalone="no"?>
<!DOCTYPE svg PUBLIC "-//W3C//DTD SVG 1.1//EN" "http://www.w3.org/Graphics/SVG/1.1/DTD/svg11.dtd">
<svg width="100%" height="100%" viewBox="0 0 811 173" version="1.1" xmlns="http://www.w3.org/2000/svg" xmlnsXlink="http://www.w3.org/1999/xlink" xmlSpace="preserve" xmlnsSerif="http://www.serif.com/" style="fill-rule:evenodd;clip-rule:evenodd;stroke-linejoin:round;stroke-miterlimit:2;">
    <g id="Ebene_2">
        <g id="Ebene_1-2">
            <path d="M293.164,51.864C293.164,63.096 286.192,72.199 266.922,72.199L232.644,72.199L232.644,3.254L267.406,3.254C283.384,3.254 291.227,11.775 291.227,21.652C291.227,27.655 288.71,33.659 282.803,36.564C289.056,39.048 293.178,45.135 293.164,51.864M250.848,18.069L250.848,31.142L265.663,31.142C269.217,31.304 272.275,28.514 272.438,24.96C272.445,24.793 272.446,24.626 272.441,24.46C272.441,20.586 269.44,18.069 265.663,18.069L250.848,18.069ZM274.378,50.895C274.378,47.119 271.764,44.601 267.116,44.601L250.848,44.601L250.848,57.383L267.019,57.383C271.86,57.383 274.378,55.252 274.378,50.895" style="fill-rule:nonzero;"/>
            <path d="M365.686,72.198L364.137,26.299C363.071,30.366 361.91,34.53 360.554,38.694L349.708,72.198L332.085,72.198L321.24,38.694C319.884,34.627 318.819,30.56 317.754,26.492L316.205,72.198L298.678,72.198L301.486,3.253L326.663,3.253L340.897,50.992L355.131,3.253L380.308,3.253L383.116,72.198L365.686,72.198Z" style="fill-rule:nonzero;"/>
            <path d="M487.783,3.254C482.167,26.59 476.163,48.669 468.998,72.199L446.823,72.199L437.334,28.914L427.747,72.199L405.573,72.199C398.407,48.669 392.404,26.59 386.691,3.254L406.347,3.254C409.639,17.972 413.416,33.756 417.289,49.055L427.069,3.254L447.501,3.254L457.281,49.055C461.154,33.756 464.93,17.972 468.223,3.254L487.783,3.254Z" style="fill-rule:nonzero;"/>
            <path d="M296.832,169.085L295.283,123.193C294.218,127.26 293.056,131.423 291.701,135.586L280.857,169.085L263.236,169.085L252.393,135.586C251.038,131.52 249.973,127.454 248.908,123.388L247.358,169.085L229.834,169.085L232.642,100.151L257.815,100.151L272.047,147.882L286.279,100.151L311.451,100.151L314.259,169.085L296.832,169.085Z" style="fill-rule:nonzero;"/>
            <path d="M319.296,134.618C319.296,112.64 337.691,98.602 357.539,98.602C377.387,98.602 395.782,112.64 395.782,134.618C395.782,156.596 377.387,170.634 357.539,170.634C337.691,170.634 319.296,156.596 319.296,134.618M376.999,134.618C376.958,123.958 368.176,115.209 357.516,115.209C346.828,115.209 338.033,124.004 338.033,134.692C338.033,145.38 346.828,154.175 357.516,154.175C368.204,154.175 376.999,145.38 376.999,134.692C376.999,134.686 376.999,134.679 376.999,134.672L376.999,134.618" style="fill-rule:nonzero;"/>
            <path d="M454.357,115.739L434.316,115.739L434.316,169.085L415.92,169.085L415.92,115.739L395.976,115.739L395.976,100.151L454.357,100.151L454.357,115.739Z" style="fill-rule:nonzero;"/>
            <path d="M454.552,134.618C454.552,112.64 472.946,98.602 492.794,98.602C512.642,98.602 531.037,112.64 531.037,134.618C531.037,156.596 512.642,170.634 492.794,170.634C472.946,170.634 454.552,156.596 454.552,134.618M512.255,134.618C512.215,123.958 503.432,115.21 492.772,115.21C482.085,115.21 473.29,124.004 473.29,134.692C473.29,145.38 482.085,154.175 492.772,154.175C503.46,154.175 512.255,145.38 512.255,134.692C512.255,134.686 512.255,134.679 512.255,134.672L512.255,134.618" style="fill-rule:nonzero;"/>
            <path d="M597.649,168.697L597.649,169.085L577.899,169.085C576.583,165.263 575.063,161.515 573.348,157.854C571.689,154.427 569.779,151.127 567.636,147.979L556.115,147.979L556.115,169.085L537.719,169.085L537.719,100.151L567.927,100.151C587.387,100.151 594.648,111.673 594.648,122.807C594.85,130.523 590.889,137.779 584.289,141.782C587.143,145.902 589.668,150.24 591.841,154.756C594.023,159.297 595.962,163.95 597.649,168.697M556.115,132.875L567.83,132.875C572.767,132.875 576.544,129.681 576.544,124.065C576.544,118.547 572.767,115.255 567.83,115.255L556.115,115.255L556.115,132.875Z" style="fill-rule:nonzero;"/>
            <path d="M664.551,168.697L664.551,169.085L644.801,169.085C643.484,165.263 641.965,161.515 640.25,157.854C638.59,154.427 636.681,151.127 634.538,147.979L623.017,147.979L623.017,169.085L604.621,169.085L604.621,100.151L634.829,100.151C654.289,100.151 661.55,111.673 661.55,122.807C661.751,130.523 657.79,137.779 651.191,141.782C654.044,145.902 656.569,150.24 658.743,154.756C660.925,159.297 662.864,163.95 664.551,168.697M623.017,132.875L634.732,132.875C639.669,132.875 643.446,129.681 643.446,124.065C643.446,118.547 639.669,115.255 634.732,115.255L623.017,115.255L623.017,132.875Z" style="fill-rule:nonzero;"/>
            <path d="M717.027,155.725L691.273,155.725C690.112,160.178 688.95,164.632 687.885,169.085L669.393,169.085C675.492,143.912 682.56,121.645 691.758,100.151L716.736,100.151C725.934,121.645 733.002,143.912 739.005,169.085L720.416,169.085C719.35,164.632 718.188,160.178 717.027,155.725M712.573,139.749C709.862,130.164 706.958,121.258 704.15,114.093C701.246,121.258 698.438,130.164 695.631,139.749L712.573,139.749Z" style="fill-rule:nonzero;"/>
            <path d="M810.068,134.618C810.068,154.078 795.159,169.085 770.955,169.085L744.717,169.085L744.717,100.151L770.955,100.151C795.159,100.151 810.068,115.158 810.068,134.618M791.286,134.618C791.286,122.129 781.604,116.029 770.955,116.029L763.112,116.029L763.112,153.207L770.955,153.207C781.604,153.207 791.286,147.107 791.286,134.618" style="fill-rule:nonzero;"/>
            <path d="M86.173,0C38.9,0 0.001,38.9 0.001,86.172C0.001,133.445 38.901,172.345 86.174,172.345C133.446,172.345 172.346,133.445 172.346,86.172C172.346,38.9 133.447,0 86.174,0L86.173,0M166.742,86.173C166.742,130.372 130.372,166.742 86.173,166.742C41.974,166.742 5.604,130.372 5.604,86.173C5.604,41.974 41.974,5.604 86.173,5.604C130.372,5.604 166.742,41.974 166.742,86.173" style="fill-rule:nonzero;"/>
            <path d="M86.173,35.072L86.173,37.873C112.658,37.903 134.442,59.688 134.472,86.173L137.274,86.173C137.274,58.14 114.206,35.072 86.173,35.072M86.173,134.472C59.688,134.442 37.904,112.657 37.874,86.173L35.071,86.173C35.071,86.173 35.071,86.173 35.071,86.173C35.071,114.207 58.139,137.275 86.173,137.275L86.173,137.275" style="fill-rule:nonzero;"/>
            <path d="M127.936,49.614C129.105,50.872 130.791,52.899 131.739,54.129L149.189,43.051C148.317,41.91 146.931,40.177 145.89,38.959L134.841,46.266L134.088,46.917L134.652,46.094L139.53,36.354L136.082,32.906L126.34,37.786L125.519,38.347L126.173,37.591L133.484,26.545C132.199,25.45 130.963,24.447 129.385,23.23L118.305,40.667C119.709,41.748 121.558,43.332 122.736,44.411L133.165,39.001L133.832,38.51L133.341,39.178L127.936,49.614Z" style="fill-rule:nonzero;"/>
            <path d="M88.344,27.519L93.112,16.84L93.415,15.894L93.329,16.883L93.831,31.153C95.503,31.312 97.23,31.543 98.935,31.826L98.159,10.687C95.776,10.425 93.405,10.236 91.033,10.136L86.338,21.793L86.173,22.658L86.007,21.793L81.312,10.136C78.941,10.236 76.569,10.425 74.186,10.687L73.41,31.826C75.115,31.543 76.842,31.312 78.514,31.153L79.016,16.883L78.929,15.894L79.234,16.84L84.001,27.519L88.344,27.519Z" style="fill-rule:nonzero;"/>
            <path d="M49.777,44.363C52.532,41.46 54.096,38.104 51.336,34.901C49.783,33.223 47.32,32.714 45.229,33.641L45.022,33.724L45.09,33.542C45.62,31.596 44.932,29.512 43.349,28.263C42.259,27.405 40.869,27.018 39.492,27.189C36.905,27.452 34.911,29.22 29.488,35.268C27.854,37.091 25.472,39.97 24.04,41.836L38.93,55.962C43.878,50.493 45.888,48.46 49.777,44.363M30.35,40.909C32.723,37.984 35.272,35.208 37.983,32.595C38.416,32.145 38.949,31.804 39.538,31.6C39.672,31.569 39.809,31.554 39.946,31.554C40.805,31.554 41.556,32.154 41.745,32.991L41.753,33.029C41.845,34.07 41.433,35.095 40.646,35.784C39.059,37.571 33.246,43.657 33.246,43.657L30.35,40.909ZM36.178,46.439C36.178,46.439 41.844,40.453 43.69,38.536C44.176,37.955 44.755,37.458 45.403,37.066C46.026,36.705 46.801,36.721 47.408,37.107C48.024,37.508 48.328,38.253 48.168,38.971C47.879,39.845 47.375,40.634 46.702,41.264C45.922,42.102 39.203,49.292 39.194,49.301L36.178,46.439Z" style="fill-rule:nonzero;"/>
            <path d="M86.173,35.072L86.173,86.173L35.072,86.173C35.072,86.164 35.072,86.156 35.072,86.147C35.072,58.138 58.112,35.086 86.121,35.072L86.173,35.072" style="fill:rgb(0,102,177);fill-rule:nonzero;"/>
            <path d="M137.275,86.173C137.275,86.182 137.275,86.191 137.275,86.199C137.275,114.209 114.235,137.261 86.225,137.275L86.173,137.275L86.173,86.173L137.275,86.173Z" style="fill:rgb(0,102,177);fill-rule:nonzero;"/>
        </g>
    </g>
</svg>
