<?xml version="1.0" encoding="UTF-8" standalone="no"?>
<svg enable-background="new 0 0 1000 160" height="67.78524" viewBox="0 0 300 67.78524" width="300" xmlns="http://www.w3.org/2000/svg">
   <path d="m17.78523 53.691277h6.37584v13.87024h2.23714v-13.87024h6.37584v-1.789711h-14.98882zm23.37808 2.23713c-2.01342 0-3.69127.783-4.80984 2.46085v-6.487691h-2.12528v15.659951h2.12528v-5.14541c0-3.57942 2.23713-4.9217 4.47427-4.9217 2.01342 0 3.46756 1.11857 3.46756 3.91499v6.26398h2.12528v-6.37584c0-3.69127-2.12528-5.36913-5.25727-5.36913m10.51454 4.80985c.33557-2.46085 1.90157-3.57942 4.1387-3.57942 1.90157 0 3.80314 1.00671 3.91499 3.57942zm4.1387-5.03356c-4.02684 0-6.48769 2.12528-6.48769 6.26398 0 3.57942 2.34899 5.81656 6.37584 5.81656 2.79642 0 5.48098-1.00671 5.92841-3.80313h-2.34899c-.44743 1.56599-1.78971 2.23713-3.69128 2.23713-2.57271 0-3.91499-1.67785-4.1387-3.91499h10.40268v-.67114c.11186-3.80313-2.01342-5.92841-6.04027-5.92841zm85.57047 2.46085l-.11185-2.23714h-2.12528c.11185.89486.11185 1.67786.11185 2.57271v8.61298h2.12528v-5.36913c0-2.79642 1.23043-4.1387 3.91499-4.1387.44743 0 .89486 0 1.67786.22371v-2.01342c-.33557 0-.55929-.11186-1.34229-.11186-2.01342 0-3.3557 1.11857-4.25056 2.46085m65.88367 0l-.11185-2.23714h-2.12528c.11185.89486.11185 1.67786.11185 2.57271v8.61298h2.23714v-5.36913c0-2.79642 1.23043-4.1387 3.91499-4.1387.44743 0 .89485 0 1.67785.22371v-2.01342c-.33557 0-.55928-.11186-1.34228-.11186-2.12528 0-3.57942 1.11857-4.36242 2.46085m-90.71588 7.15884l-3.91499-9.61969h-2.79642l-3.80313 9.61969-3.57942-9.61969h-2.46085l4.47427 11.18568h2.90828l3.69128-9.50783 3.91498 9.50783h2.79642l4.36242-11.18568h-2.23714zm-38.81432-5.48099h-4.58613v-6.26398h4.47428c3.02013 0 4.02684 1.11857 4.02684 2.90828 0 2.23713-1.00671 3.3557-3.91499 3.3557m-.11185-7.941831h-6.71141v15.659951h2.23713v-5.92841h4.80985c4.1387 0 6.15212-2.12528 6.15212-5.03355 0-2.68457-1.67785-4.697991-6.48769-4.697991m14.09396 14.317671c-3.02014 0-4.58613-2.01342-4.58613-4.47427 0-2.68456 1.56599-4.47427 4.58613-4.47427 3.13199 0 4.69798 1.90156 4.69798 4.47427 0 2.46085-1.56599 4.47427-4.69798 4.47427m0-10.51454c-4.47428 0-6.93513 2.46085-6.93513 6.04027 0 3.80313 2.46085 6.04027 6.93513 6.04027 4.58612 0 6.93512-2.12528 6.93512-6.04027.11185-3.80313-2.23714-6.04027-6.93512-6.04027m34.67561 5.03356c.33557-2.46085 1.90157-3.57942 4.1387-3.57942 1.90157 0 3.80313 1.00671 3.80313 3.57942zm4.1387-5.03356c-4.02684 0-6.48769 2.12528-6.48769 6.26398 0 3.57942 2.34899 5.81656 6.37584 5.81656 2.79642 0 5.48098-1.00671 5.92841-3.80313h-2.23714c-.44743 1.56599-1.78971 2.23713-3.69127 2.23713-2.57271 0-3.91499-1.67785-4.13871-3.91499h10.40269v-.67114c0-3.80313-2.23714-5.92841-6.15213-5.92841zm86.91275 5.03356c.33557-2.46085 1.90157-3.57942 4.13871-3.57942 1.90156 0 3.80313 1.00671 3.80313 3.57942zm4.25056-5.03356c-4.02684 0-6.48769 2.12528-6.48769 6.26398 0 3.57942 2.34899 5.81656 6.37584 5.81656 2.79642 0 5.48098-1.00671 5.92841-3.80313h-2.23714c-.44743 1.56599-1.78971 2.23713-3.69127 2.23713-2.57271 0-3.91499-1.67785-4.13871-3.91499h10.40269v-.67114c-.11186-3.80313-2.23714-5.92841-6.15213-5.92841zm-50.55928-.783v.44743h-2.79642v1.566h2.79642v9.73154h2.23714v-9.73154h4.47427v-1.566h-4.47427v-.89485c0-1.789714.78299-2.348998 2.46085-2.348998.55928 0 1.34228.111857 2.34899.335571v-1.565996c-.783-.111857-1.67785-.223714-2.79642-.223714-3.24385-.111856-4.25056 1.677853-4.25056 4.250557m-10.96197 11.29754c-3.02013 0-4.69799-2.01342-4.69799-4.47427 0-2.68456 1.67786-4.47427 4.69799-4.47427 3.13199 0 4.69799 1.90156 4.69799 4.47427 0 2.46085-1.67785 4.47427-4.69799 4.47427m0-10.51454c-4.47427 0-6.93512 2.46085-6.93512 6.04027 0 3.80313 2.46085 6.04027 6.93512 6.04027 4.47427 0 6.93512-2.12528 6.93512-6.04027 0-3.80313-2.34899-6.04027-6.93512-6.04027m100.11186 0c-2.349 0-3.80313 1.566-4.36242 2.79642-.67114-1.90156-2.34899-2.79642-4.02684-2.79642-1.566 0-3.132.783-4.13871 2.46085l-.11185-2.01342h-2.01343c.11186.89485.11186 1.67785.11186 2.5727v8.61298h2.23714v-5.36913c0-3.3557 1.90156-4.69798 3.57942-4.69798 1.7897 0 2.68456 1.23042 2.68456 4.36241v5.7047h2.12528v-5.36913c0-3.91499 2.46085-4.69798 3.57942-4.69798 2.23713 0 2.79642 1.45413 2.79642 4.47427v5.59284h2.23713v-6.4877c-.11185-3.69127-2.01342-5.14541-4.69798-5.14541m15.65995 5.48098l-3.69127-.78299c-1.67785-.33557-2.349-.67114-2.349-1.566 0-1.11857 1.34229-1.67785 3.24385-1.67785 1.566 0 3.02014.44743 3.13199 1.78971h2.23714c0-2.68457-2.90828-3.35571-5.36913-3.35571-2.90827 0-5.48098 1.00672-5.48098 3.46757 0 1.7897 1.34228 2.46085 3.02013 2.90827l3.46756.783c1.23043.22371 2.46085.55928 2.46085 1.566 0 1.23042-1.23042 1.90156-3.69127 1.90156-2.01342 0-3.35571-.55928-3.57942-2.12528h-2.34899c.22371 2.57271 2.5727 3.57942 5.7047 3.57942 4.25055 0 6.15212-1.23042 6.15212-3.57942.11186-1.67785-.89485-2.46085-2.90828-2.90828m-82.21476 4.69799h-4.1387v-12.30425h3.80313c5.59284 0 6.93512 2.12528 6.93512 6.15213 0 3.24384-1.23042 6.15212-6.59955 6.15212m.22371-13.982101h-6.59955v15.659951h6.71141c5.48098 0 8.61297-2.79642 8.61297-7.82997 0-5.03356-2.68456-7.829981-8.72483-7.829981m45.97316 10.402681c0 2.68457-1.566 3.91499-4.25056 3.91499-2.12528 0-3.02014-.89485-3.02014-2.12528 0-2.46085 4.36242-2.23713 6.04027-2.23713h1.11857v.44742zm2.12528-2.68456c0-2.68456-2.23714-3.91499-5.36913-3.91499-2.46085 0-5.25727.67114-5.48099 3.35571h2.349c.11185-1.11857 1.23042-1.90157 3.24384-1.90157 1.90157 0 3.24385.67114 3.24385 2.68456v.44743h-1.23042c-2.57271 0-8.27741-.22371-8.27741 3.69128 0 2.23713 1.90157 3.69127 4.69799 3.69127 2.23714 0 3.57942-.22371 4.80984-1.90157l.11186 1.566h2.01342c-.11185-.67114-.11185-1.34228-.11185-2.12528z" fill="#020303" stroke-width="1.11856818"/>
   <path d="m34.56376 5.816554l4.58613.559284c2.01342.223714 2.23713 1.901566 2.23713 3.020135v5.369127h-20.91722v-5.369127c0-1.118569.22371-2.796421 2.23714-3.020135l4.58612-.559284v-4.586129h-27.29306v4.586129l4.58613.559284c2.01342.223714 2.23714 1.901566 2.23714 3.020135v17.673378c0 1.118568-.22372 2.79642-2.23714 3.020134l-4.58613.671141v4.58613h27.18121v-4.58613l-4.58613-.559284c-2.01342-.223714-2.23714-1.901566-2.23714-3.020134v-5.369128h20.91723v5.369128c0 1.118568-.22372 2.79642-2.23714 3.020134l-4.58613.559284v4.58613h27.18121v-4.58613l-4.58613-.559284c-2.01342-.223714-2.23714-1.901566-2.23714-3.020134v-17.785235c0-1.118569.22372-2.796421 2.23714-3.020135l4.58613-.559284v-4.586129h-27.18121v4.586129zm179.30649 23.042506h-11.4094v-21.029083h11.4094c6.71141 0 8.94854 3.243848 8.94854 10.514542 0 7.270693-2.23713 10.514541-8.94854 10.514541m2.46085-27.628635h-33.55705v4.586129l4.02684.447428c1.45414.223713 2.349.782997 2.349 2.79642v18.120806c0 1.118568-.22372 2.79642-2.23714 3.020134l-4.58613.559284v4.58613h34.00448c12.19239 0 22.14765-4.921701 22.14765-17.114094 0-12.080537-10.06712-17.002237-22.14765-17.002237" fill="#c00" stroke-width="1.11856818"/>
   <path d="m257.15884 18.903803l6.48769-10.514542 6.82327 10.514542zm38.14317 11.409396c-2.12528-.223714-2.79642-1.677853-3.46756-2.684564l-15.65995-24.049217c-1.11857-1.677852-1.90157-2.237137-3.57942-2.237137h-25.72707v4.58613l6.15212.671141c.89486.111857 2.01343 1.230425 1.11857 2.908278l-11.52125 18.903803c-.44743.782997-1.00671 1.677852-2.34899 1.789709l-4.58613.559284v4.58613h21.70022v-4.58613l-3.69127-.335571c-1.566-.223713-2.46085-1.342281-1.67786-2.572706l1.78971-2.796421h20.80537l1.566 2.348993c1.34228 2.12528-.33557 2.908278-1.78971 3.131991l-3.80313.447428v4.586129h29.41834v-4.809843zm-137.13646-24.496645l4.58613.559284c2.01342.223714 2.23713 1.901566 2.23713 3.020135v17.114094l-18.00894-23.825504c-.783-1.118568-1.45414-1.454138-3.46757-1.454138h-23.26621v4.586129l4.58612.559284c2.01343.223714 2.23714 1.901566 2.23714 3.020135v17.673378c0 1.118568-.22371 2.79642-2.23714 3.020134l-4.58612.559284v4.58613h21.70022v-4.474273l-4.58613-.559284c-2.01342-.223714-2.23714-1.901566-2.23714-3.020134v-17.114094l18.00895 23.825503c.783 1.118568 1.566 1.454139 3.46756 1.454139h16.44296v-25.950783c0-1.118569.22371-2.796421 2.23713-3.020135l4.58613-.559284v-4.586129h-21.70022zm-67.1141 24.161074c-8.61297 0-12.08053-3.579418-12.08053-11.744966 0-8.165548 3.57942-11.744967 12.08053-11.744967 8.61298 0 12.08054 3.579419 12.08054 11.744967.11186 8.053691-3.46756 11.744966-12.08054 11.744966m0-29.977628c-22.03579 0-27.74049 9.731543-27.74049 18.232662 0 8.501118 5.7047 18.232662 27.74049 18.232662 22.0358 0 27.7405-9.731544 27.7405-18.232662.11185-8.501119-5.59284-18.232662-27.7405-18.232662" fill="#c00" stroke-width="1.11856818"/>
</svg>
