<?xml version="1.0" encoding="ISO-8859-1"?>
<!DOCTYPE svg PUBLIC "-//W3C//DTD SVG 1.0//EN" "http://www.w3.org/TR/2001/REC-SVG-20010904/DTD/svg10.dtd">
<!-- Creator: CorelDRAW -->
<svg xmlns="http://www.w3.org/2000/svg" xmlnsOdm="http://product.corel.com/CGS/11/cddns/" xmlSpace="preserve" width="3.33333in" height="0.466661in" style="shape-rendering: geometricprecision; text-rendering: geometricprecision; fill-rule: evenodd;" viewBox="0 0 3334 466">
  <g id="Layer 1">
  <g>
   <path class="fil0" d="M876 171l-55 0 -60 137 -63 -137 -54 0 0 4c21,1 27,3 27,25l0 111c0,29 -6,33 -27,34l0 6 65 0 0 -6c-21,-1 -27,-7 -27,-34l0 -109 2 0 67 149 4 0 69 -155 0 0 0 122c0,22 -3,26 -25,27l0 6 77 0 0 -6c-18,-1 -24,-3 -24,-24l0 -121c0,-22 7,-22 24,-25l0 -4z"/>
   <path class="fil0" d="M888 351l64 0 0 -5c-20,-1 -20,-6 -20,-23l0 -97 -2 0c-13,4 -27,10 -42,15l0 3c4,0 8,-1 11,-1 5,0 9,1 9,17l0 63c0,21 -4,22 -20,23l0 5zm16 -173c0,5 4,14 13,14 8,0 15,-5 15,-14 0,-7 -7,-13 -15,-13 -9,0 -13,8 -13,13z"/>
   <path class="fil0" d="M1028 228l-28 0 0 -31c0,-2 0,-4 -2,-4 -9,14 -14,20 -24,32 -6,5 -12,7 -12,10 0,1 0,1 2,2l13 0 0 81c0,28 12,35 26,35 12,0 25,-9 32,-20l-4 -4c-3,4 -8,11 -17,11 -14,0 -14,-17 -14,-26l0 -77 28 0 0 -9z"/>
   <path class="fil0" d="M1119 264l0 -36 -3 0c-1,1 -2,2 -4,2 -5,0 -14,-4 -25,-4 -27,0 -39,17 -39,33 0,20 15,30 31,39l17 10c8,4 13,10 13,20 0,15 -12,19 -22,19 -26,0 -32,-24 -34,-37l-5 0 0 42 4 0c1,-3 2,-3 6,-3 8,0 19,4 32,4 17,0 39,-11 39,-35 0,-17 -10,-23 -23,-32l-30 -18c-9,-6 -11,-14 -11,-18 0,-8 5,-18 20,-18 13,0 24,5 31,32l3 0z"/>
   <path class="fil0" d="M1270 337c-16,0 -17,-6 -17,-16l0 -93 -43 0 0 4c20,2 21,7 21,18l0 64c0,9 -2,11 -4,14 -8,5 -17,9 -25,9 -17,0 -20,-16 -20,-21l0 -88 -39 0 0 4c8,0 15,0 15,18l0 68c0,28 22,35 34,35 5,0 17,-1 29,-11l11 -12 0 22 0 1c13,-4 23,-9 38,-13l0 -3z"/>
   <path class="fil0" d="M1317 262c1,-15 20,-19 28,-19 25,0 34,28 34,53 0,18 -5,48 -35,48 -7,0 -27,-4 -27,-13l0 -69zm-22 74c0,10 28,17 42,17 50,0 66,-42 66,-67 0,-29 -14,-60 -48,-60 -20,0 -35,15 -37,21l-1 0 0 -82 -1 0c-13,4 -26,8 -39,11l0 5c1,0 4,0 6,0 12,0 12,6 12,14l0 141z"/>
   <path class="fil0" d="M1416 351l66 0 0 -5c-20,-1 -21,-6 -21,-23l0 -97 -1 0c-14,4 -28,10 -43,15l0 3c4,0 8,-1 11,-1 5,0 10,1 10,17l0 63c0,21 -5,22 -22,23l0 5zm17 -173c0,5 4,14 14,14 8,0 14,-5 14,-14 0,-7 -6,-13 -14,-13 -9,0 -14,8 -14,13z"/>
   <path class="fil0" d="M1573 264l-1 -36 -2 0c-2,1 -2,2 -5,2 -4,0 -14,-4 -25,-4 -26,0 -38,17 -38,33 0,20 15,30 31,39l16 10c9,4 14,10 14,20 0,15 -12,19 -22,19 -26,0 -32,-24 -34,-37l-5 0 0 42 4 0c1,-3 2,-3 5,-3 8,0 20,4 33,4 17,0 39,-11 39,-35 0,-17 -10,-23 -23,-32l-29 -18c-10,-6 -12,-14 -12,-18 0,-8 5,-18 20,-18 12,0 24,5 31,32l3 0z"/>
   <path class="fil0" d="M1726 346c-13,-2 -16,-3 -16,-23l0 -55c0,-10 0,-42 -33,-42 -18,0 -30,8 -40,21l0 0 0 -81 -2 -1c-13,4 -26,8 -39,11l0 5c2,0 4,0 6,0 11,0 11,6 11,14l0 128c0,20 -2,21 -17,23l0 5 59 0 0 -5c-14,-1 -18,-2 -18,-23l0 -66c11,-13 22,-16 29,-16 15,0 21,10 21,28l0 54c0,21 -6,22 -18,23l0 5 57 0 0 -5z"/>
   <path class="fil0" d="M1734 351l65 0 0 -5c-19,-1 -20,-6 -20,-23l0 -97 -2 0c-14,4 -28,10 -42,15l0 3c4,0 7,-1 10,-1 5,0 11,1 11,17l0 63c0,21 -4,22 -22,23l0 5zm18 -173c0,5 3,14 13,14 8,0 14,-5 14,-14 0,-7 -6,-13 -14,-13 -10,0 -13,8 -13,13z"/>
   <path class="fil0" d="M2042 228l-2 -61 -6 0c-2,8 -12,8 -13,8 -6,0 -23,-8 -47,-8 -47,0 -93,33 -93,93 0,68 47,94 91,94 50,0 73,-34 73,-34l-4 -5c-8,8 -28,28 -61,28 -34,0 -68,-25 -68,-82 0,-39 13,-57 23,-68 12,-10 28,-15 41,-15 34,0 54,22 60,50l6 0z"/>
   <path class="fil0" d="M2121 226c-35,0 -59,30 -59,63 0,36 26,64 61,64 41,0 60,-38 60,-64 0,-40 -25,-63 -62,-63zm5 119c-32,0 -38,-49 -38,-70 0,-28 15,-43 32,-43 24,0 38,30 38,65 0,38 -17,48 -32,48z"/>
   <path class="fil0" d="M2212 328c0,15 -5,16 -20,18l0 5 66 0 0 -5c-14,0 -23,-1 -23,-21l0 -61c0,-8 11,-21 18,-21 7,0 10,9 18,9 7,0 11,-6 11,-11 0,-9 -4,-15 -15,-15 -11,0 -19,4 -32,24l0 0 0 -24 -1 0c-14,4 -28,10 -40,15l0 3c2,0 4,-1 8,-1 4,0 10,1 10,17l0 68z"/>
   <path class="fil0" d="M2303 387c0,11 -1,17 -20,18l0 4 66 0 0 -4c-20,0 -24,-4 -24,-21l0 -42c9,8 17,11 27,11 38,0 58,-38 58,-69 0,-37 -21,-58 -46,-58 -20,0 -32,12 -39,20l0 -1 0 -19 -2 0c-13,4 -26,9 -39,13l0 5c3,-1 5,-1 8,-1 10,0 11,4 11,16l0 128zm22 -127c2,-10 17,-18 27,-18 34,0 34,44 34,50 0,48 -25,52 -33,52 -15,0 -28,-11 -28,-17l0 -67z"/>
   <path class="fil0" d="M2484 226c-36,0 -59,30 -59,63 0,36 25,64 60,64 41,0 61,-38 61,-64 0,-40 -26,-63 -62,-63zm5 119c-32,0 -39,-49 -39,-70 1,-28 16,-43 32,-43 25,0 39,30 39,65 0,38 -19,48 -32,48z"/>
   <path class="fil0" d="M2575 328c0,15 -5,16 -20,18l0 5 66 0 0 -5c-14,0 -23,-1 -23,-21l0 -61c0,-8 11,-21 18,-21 7,0 9,9 18,9 7,0 11,-6 11,-11 0,-9 -6,-15 -15,-15 -10,0 -20,4 -32,24l0 0 0 -24 -1 0c-14,4 -28,10 -42,15l0 3c3,0 6,-1 11,-1 3,0 9,1 9,17l0 68z"/>
   <path class="fil0" d="M2723 318c0,7 -1,11 -9,15 -2,0 -11,4 -18,4 -10,0 -18,-8 -18,-21l0 -1c0,-9 3,-24 45,-38l0 41zm41 15c-2,2 -5,5 -11,5 -8,0 -8,-8 -8,-16l0 -53c0,-17 0,-43 -40,-43 -32,0 -45,19 -45,30 0,4 3,11 11,11 7,0 13,-6 13,-11 0,-2 -1,-6 -1,-11 0,-8 10,-13 18,-13 9,0 22,3 22,22l0 17c-45,18 -69,27 -69,54 0,18 15,28 30,28 15,0 29,-10 39,-20 2,20 12,20 17,20 5,0 13,0 24,-13l0 -7z"/>
   <path class="fil0" d="M2835 228l-28 0 0 -31c0,-2 0,-4 -1,-4 -10,14 -15,20 -25,32 -6,5 -12,7 -12,10 0,1 0,1 1,2l15 0 0 81c0,28 11,35 24,35 13,0 26,-9 32,-20l-3 -4c-3,4 -8,11 -16,11 -15,0 -15,-17 -15,-26l0 -77 28 0 0 -9z"/>
   <path class="fil0" d="M2846 351l64 0 0 -5c-19,-1 -20,-6 -20,-23l0 -97 -2 0c-13,4 -27,10 -41,15l0 3c3,0 7,-1 11,-1 4,0 9,1 9,17l0 63c0,21 -5,22 -21,23l0 5zm16 -173c0,5 5,14 14,14 8,0 14,-5 14,-14 0,-7 -6,-13 -14,-13 -9,0 -14,8 -14,13z"/>
   <path class="fil0" d="M2983 226c-36,0 -58,30 -58,63 0,36 24,64 58,64 42,0 62,-38 62,-64 0,-40 -25,-63 -62,-63zm5 119c-33,0 -39,-49 -39,-70 0,-28 15,-43 32,-43 26,0 39,30 39,65 0,38 -18,48 -32,48z"/>
   <path class="fil0" d="M3074 325c0,17 -3,20 -17,21l0 5 59 0 0 -5c-15,-1 -18,-4 -18,-13l0 -77c10,-11 18,-15 27,-15 15,0 20,9 20,26l0 56c0,21 -6,22 -17,23l0 5 57 0 0 -5c-13,-1 -16,-4 -16,-17l0 -63c0,-34 -20,-40 -32,-40 -17,0 -27,9 -41,21l0 -21 -1 0c-12,4 -25,8 -38,11l0 5c2,0 5,-1 8,-1 5,0 9,1 9,18l0 66z"/>
   <path class="fil1" d="M254 254l-53 93 105 0 54 -93 -106 0z"/>
   <path class="fil1" d="M360 70l-54 93 54 91 52 -91 -52 -93z"/>
   <path class="fil1" d="M465 254l-105 0 52 93 107 0 -54 -93z"/>
  </g>
 </g>
</svg>