<?xml version="1.0" encoding="utf-8"?>
<!-- Generator: Adobe Illustrator 22.1.0, SVG Export Plug-In . SVG Version: 6.00 Build 0)  -->
<svg version="1.1" id="Layer_1" xmlns="http://www.w3.org/2000/svg" xmlns:xlink="http://www.w3.org/1999/xlink" x="0px" y="0px"
	 viewBox="0 0 750 207" enable-background="new 0 0 750 207" xml:space="preserve">
<g>
	<rect y="0.373" fill="#EB0A1E" width="206.254" height="206.254"/>
	<g>
		<path d="M692.845,109.932l11.572-30.343l11.554,30.343H692.845z M716.427,62.359h-24.031l-33.581,82.275h20.818l7.648-20.078
			h34.258l7.651,20.078H750L716.427,62.359z M546.935,130.329c-13.562,0-24.536-12.233-24.536-27.33
			c0-15.099,10.974-27.341,24.536-27.341c13.538,0,24.529,12.242,24.529,27.341C571.464,118.096,560.474,130.329,546.935,130.329
			 M546.935,59.539c-24.006,0-43.467,19.459-43.467,43.46c0,24,19.461,43.45,43.467,43.45c23.991,0,43.461-19.449,43.461-43.45
			C590.396,78.997,570.926,59.539,546.935,59.539 M375.443,130.329c-13.538,0-24.52-12.233-24.52-27.33
			c0-15.099,10.982-27.341,24.52-27.341c13.554,0,24.537,12.242,24.537,27.341C399.981,118.096,388.997,130.329,375.443,130.329
			 M375.443,59.539c-23.999,0-43.442,19.459-43.442,43.46c0,24,19.443,43.45,43.442,43.45c23.999,0,43.46-19.449,43.46-43.45
			C418.903,78.997,399.442,59.539,375.443,59.539 M482.862,62.359l-21.294,33.288l-21.311-33.288H419.43l32.965,51.595v30.68h18.332
			v-30.673l32.961-51.602H482.862z M663.196,62.359h-70.341v15.777h26.053v66.498h18.35V78.135h25.939V62.359z M257.817,78.135
			h26.061v66.498h18.341V78.135h25.948V62.359h-70.35V78.135z"/>
	</g>
	<path fill="#FFFFFF" d="M103.127,56.678c-38.943,0-68.751,20.082-68.751,46.822c0,25.859,29.047,46.822,68.751,46.822
		c39.704,0,68.751-20.963,68.751-46.822C171.878,76.76,142.07,56.678,103.127,56.678z M145.995,76.76
		c1.433,5.772-5.291,12.987-26.924,15.346c-1.441-14.701-5.799-27.12-13.026-29.75c9.728,0.274,18.95,1.919,26.989,4.836
		C140.552,70.028,145.223,73.647,145.995,76.76z M113.951,103.274c0,18.626-5.594,26.346-10.824,26.346
		c-5.23,0-10.824-7.721-10.824-26.346c0-0.065,0.001-0.129,0.001-0.194c3.476,0.294,7.094,0.448,10.823,0.448
		c3.729,0,7.347-0.154,10.823-0.448C113.95,103.145,113.951,103.209,113.951,103.274z M103.123,92.892
		c-3.648,0-7.022-0.104-10.142-0.296c1.643-12.179,6.008-19.261,10.145-19.261c4.138,0,8.502,7.081,10.145,19.26
		C110.151,92.788,106.775,92.892,103.123,92.892z M60.252,76.76c0.769-3.097,5.396-6.695,12.847-9.526
		c8.067-2.944,17.334-4.604,27.11-4.879c-7.227,2.63-11.586,15.05-13.027,29.751C65.544,89.748,58.819,82.533,60.252,76.76z
		 M44.515,101.813c0-7.885,2.641-14.7,7.235-20.342c0.595,10.455,14.737,18.252,34.902,20.989c-0.002,0.271-0.003,0.542-0.003,0.814
		c0,25.225,6.467,38.597,13.635,41.359C69.501,143.527,44.515,124.566,44.515,101.813z M105.843,144.637
		c7.218-2.882,13.762-17.23,13.762-41.363c0-0.271-0.001-0.543-0.003-0.814c20.165-2.737,34.307-10.534,34.902-20.989
		c4.594,5.642,7.235,12.457,7.235,20.342C161.739,124.598,136.684,143.578,105.843,144.637z"/>
</g>
<g>
</g>
<g>
</g>
<g>
</g>
<g>
</g>
<g>
</g>
<g>
</g>
<g>
</g>
<g>
</g>
<g>
</g>
<g>
</g>
<g>
</g>
<g>
</g>
<g>
</g>
<g>
</g>
<g>
</g>
</svg>
